<?xml version="1.0" encoding="UTF-8"?>
<svg id="Layer_2" data-name="Layer 2" xmlns="http://www.w3.org/2000/svg" viewBox="0 0 81.18 133.95">
  <defs>
    <style>
      .cls-1 {
        fill: #4f4f4f;
      }

      .cls-2 {
        fill: #fbaf3b;
      }

      .cls-3 {
        opacity: .15;
      }

      .cls-4 {
        fill: #2f2f31;
      }

      .cls-5 {
        fill: #f8e7c5;
      }
    </style>
  </defs>
  <g id="Layer_1-2" data-name="Layer 1">
    <g>
      <g>
        <path class="cls-1" d="M19.52,87.99v38.73c0,2.49,9.43,4.51,21.07,4.51s21.07-2.02,21.07-4.51v-38.73H19.52Z"/>
        <path class="cls-4" d="M40.59,133.95c-7.15,0-23.79-.71-23.79-7.23v-38.73c0-1.5,1.22-2.72,2.72-2.72h42.14c1.5,0,2.72,1.22,2.72,2.72v38.73c0,6.53-16.64,7.23-23.79,7.23ZM22.24,125.98c1.71,1,8.06,2.53,18.35,2.53s16.63-1.53,18.35-2.53v-35.27H22.24v35.27Z"/>
      </g>
      <g>
        <path class="cls-1" d="M19.52,79.59v38.73c0,2.49,9.43,4.51,21.07,4.51s21.07-2.02,21.07-4.51v-38.73H19.52Z"/>
        <path class="cls-4" d="M40.59,125.55c-7.15,0-23.79-.71-23.79-7.23v-38.73c0-1.5,1.22-2.72,2.72-2.72h42.14c1.5,0,2.72,1.22,2.72,2.72v38.73c0,6.53-16.64,7.23-23.79,7.23ZM22.24,117.58c1.71,1,8.06,2.53,18.35,2.53s16.63-1.53,18.35-2.53v-35.27H22.24v35.27Z"/>
      </g>
      <path class="cls-3" d="M52.58,87.99v38.73c0,2.16-7.08,3.96-16.53,4.4,1.46.07,2.98.11,4.54.11,11.64,0,21.07-2.02,21.07-4.51v-38.73h-9.07Z"/>
      <g>
        <path class="cls-5" d="M78.45,12.51H2.72l11.52,92.5h.04c.41,2.43,12.02,4.38,26.31,4.38s25.9-1.95,26.31-4.38h.04l11.52-92.5Z"/>
        <path class="cls-4" d="M40.59,112.11c-9.74,0-25.79-.76-28.61-5.59-.23-.34-.39-.74-.44-1.17L.02,12.85c-.1-.78.14-1.55.66-2.14.52-.58,1.26-.92,2.04-.92h75.73c.78,0,1.52.33,2.04.92.52.59.76,1.36.66,2.14l-11.52,92.5c-.06.47-.24.91-.5,1.27-2.98,4.75-18.87,5.49-28.55,5.49ZM16.84,103.89c1.95,1.06,10.11,2.77,23.75,2.77s21.8-1.71,23.75-2.77l11.04-88.66H5.8l11.04,88.66Z"/>
      </g>
      <path class="cls-3" d="M69.38,12.51l-11.52,92.5h-.04c-.37,2.17-9.64,3.95-21.77,4.31,1.48.04,2.99.07,4.54.07,14.29,0,25.9-1.95,26.31-4.38h.04l11.52-92.5h-9.07Z"/>
      <g>
        <rect class="cls-5" x="2.72" y="2.72" width="75.73" height="9.79"/>
        <path class="cls-4" d="M78.46,15.24H2.72C1.22,15.24,0,14.02,0,12.51V2.72C0,1.22,1.22,0,2.72,0h75.73c1.5,0,2.72,1.22,2.72,2.72v9.79c0,1.5-1.22,2.72-2.72,2.72ZM5.44,9.79h70.29v-4.35H5.44v4.35Z"/>
      </g>
      <rect class="cls-3" x="69.38" y="2.72" width="9.07" height="9.79"/>
      <g>
        <polygon class="cls-2" points="56.6 73.44 24.57 73.44 20.94 36.79 60.23 36.79 56.6 73.44"/>
        <path class="cls-4" d="M56.6,76.16H24.57c-1.4,0-2.57-1.06-2.71-2.45l-3.63-36.64c-.07-.76.18-1.53.69-2.1.52-.57,1.25-.89,2.02-.89h39.29c.77,0,1.5.33,2.02.89.52.57.77,1.33.69,2.1l-3.63,36.64c-.14,1.39-1.31,2.45-2.71,2.45ZM27.04,70.72h27.1l3.09-31.2H23.95l3.09,31.2Z"/>
      </g>
      <polygon class="cls-3" points="51.16 36.79 47.53 73.44 56.6 73.44 60.23 36.79 51.16 36.79"/>
    </g>
  </g>
</svg>