<?xml version="1.0" encoding="UTF-8"?>
<svg id="Layer_2" data-name="Layer 2" xmlns="http://www.w3.org/2000/svg" viewBox="0 0 128.96 136.48">
  <defs>
    <style>
      .cls-1 {
        fill: #fbaf3b;
      }

      .cls-2 {
        opacity: .15;
      }

      .cls-3 {
        fill: #2f2f31;
      }

      .cls-4 {
        fill: #e2e2e2;
      }
    </style>
  </defs>
  <g id="Layer_1-2" data-name="Layer 1">
    <g>
      <g>
        <circle class="cls-1" cx="64.48" cy="56.54" r="53.82" transform="translate(-5.36 106.31) rotate(-76.72)"/>
        <path class="cls-3" d="M64.48,113.08c-31.18,0-56.54-25.36-56.54-56.54S33.3,0,64.48,0s56.54,25.36,56.54,56.54-25.36,56.54-56.54,56.54ZM64.48,5.44c-28.18,0-51.1,22.92-51.1,51.1s22.92,51.1,51.1,51.1,51.1-22.92,51.1-51.1S92.66,5.44,64.48,5.44Z"/>
      </g>
      <path class="cls-2" d="M98.73,15.03c7.69,9.31,12.31,21.24,12.31,34.25,0,29.72-24.1,53.82-53.82,53.82-13.01,0-24.95-4.62-34.25-12.31,9.87,11.95,24.8,19.56,41.51,19.56,29.72,0,53.82-24.1,53.82-53.82,0-16.71-7.62-31.64-19.56-41.51Z"/>
      <g>
        <circle class="cls-4" cx="64.48" cy="56.54" r="43.23" transform="translate(-5.36 106.31) rotate(-76.72)"/>
        <path class="cls-3" d="M64.48,102.49c-25.34,0-45.95-20.61-45.95-45.95S39.14,10.59,64.48,10.59s45.95,20.61,45.95,45.95-20.61,45.95-45.95,45.95ZM64.48,16.03c-22.34,0-40.51,18.17-40.51,40.51s18.17,40.51,40.51,40.51,40.51-18.17,40.51-40.51-18.17-40.51-40.51-40.51Z"/>
      </g>
      <path class="cls-2" d="M91.2,22.57c5.79,7.35,9.26,16.63,9.26,26.72,0,23.88-19.36,43.23-43.23,43.23-10.09,0-19.36-3.47-26.72-9.26,7.92,10.05,20.19,16.51,33.97,16.51,23.88,0,43.23-19.36,43.23-43.23,0-13.79-6.46-26.06-16.51-33.97Z"/>
      <g>
        <path class="cls-3" d="M64.48,122.65C28.93,122.65,0,93.72,0,58.17c0-1.5,1.22-2.72,2.72-2.72s2.72,1.22,2.72,2.72c0,32.55,26.48,59.04,59.04,59.04s59.04-26.48,59.04-59.04c0-1.5,1.22-2.72,2.72-2.72s2.72,1.22,2.72,2.72c0,35.55-28.93,64.48-64.48,64.48Z"/>
        <path class="cls-3" d="M10.66,59.26H2.72c-1.5,0-2.72-1.22-2.72-2.72s1.22-2.72,2.72-2.72h7.94c1.5,0,2.72,1.22,2.72,2.72s-1.22,2.72-2.72,2.72Z"/>
        <path class="cls-3" d="M126.24,59.26h-7.94c-1.5,0-2.72-1.22-2.72-2.72s1.22-2.72,2.72-2.72h7.94c1.5,0,2.72,1.22,2.72,2.72s-1.22,2.72-2.72,2.72Z"/>
      </g>
      <path class="cls-3" d="M64.48,136.48c-1.5,0-2.72-1.22-2.72-2.72v-13.83c0-1.5,1.22-2.72,2.72-2.72s2.72,1.22,2.72,2.72v13.83c0,1.5-1.22,2.72-2.72,2.72Z"/>
      <path class="cls-3" d="M100.31,136.48H27.12c-1.5,0-2.72-1.22-2.72-2.72s1.22-2.72,2.72-2.72h73.19c1.5,0,2.72,1.22,2.72,2.72s-1.22,2.72-2.72,2.72Z"/>
    </g>
  </g>
</svg>