<?xml version="1.0" encoding="UTF-8"?>
<svg id="Layer_2" data-name="Layer 2" xmlns="http://www.w3.org/2000/svg" viewBox="0 0 135.66 129.04">
  <defs>
    <style>
      .cls-1 {
        fill: #fbaf3b;
      }

      .cls-2 {
        opacity: .15;
      }

      .cls-3 {
        fill: #2f2f31;
      }

      .cls-4 {
        fill: #ee3565;
      }

      .cls-5 {
        fill: #f8e7c5;
      }
    </style>
  </defs>
  <g id="Layer_1-2" data-name="Layer 1">
    <g>
      <g>
        <path class="cls-5" d="M107.83,94.37c.04-.79.06-1.58.06-2.38,0-29.04-23.54-52.58-52.58-52.58S2.72,62.96,2.72,92c0,.8.02,1.59.06,2.38h105.04Z"/>
        <path class="cls-3" d="M107.83,97.09H2.78c-1.45,0-2.65-1.14-2.72-2.6-.04-.83-.06-1.66-.06-2.5,0-30.49,24.81-55.3,55.3-55.3s55.3,24.81,55.3,55.3c0,.84-.03,1.67-.06,2.5-.06,1.45-1.26,2.6-2.72,2.6ZM5.45,91.65h99.72c-.18-27.34-22.48-49.52-49.86-49.52S5.63,64.31,5.45,91.65Z"/>
      </g>
      <path class="cls-2" d="M55.3,39.41c-1.53,0-3.04.08-4.54.21,26.91,2.3,48.05,24.86,48.05,52.37,0,.8-.02,1.59-.06,2.38h9.07c.04-.79.06-1.58.06-2.38,0-29.04-23.54-52.58-52.58-52.58Z"/>
      <g>
        <polygon class="cls-4" points="98.25 114.01 12.23 114.01 2.78 94.37 107.71 94.37 98.25 114.01"/>
        <path class="cls-3" d="M98.25,116.73H12.23c-1.05,0-2-.6-2.45-1.54L.33,95.55c-.41-.84-.35-1.84.15-2.63.5-.79,1.37-1.27,2.3-1.27h104.92c.94,0,1.81.48,2.31,1.27.5.79.55,1.78.15,2.63l-9.45,19.64c-.45.94-1.41,1.54-2.45,1.54ZM13.94,111.29h82.6l6.83-14.19H7.11l6.83,14.19Z"/>
      </g>
      <g>
        <rect class="cls-4" x="12.23" y="113.92" width="86.25" height="12.4"/>
        <path class="cls-3" d="M98.48,129.04H12.23c-1.5,0-2.72-1.22-2.72-2.72v-12.4c0-1.5,1.22-2.72,2.72-2.72h86.25c1.5,0,2.72,1.22,2.72,2.72v12.4c0,1.5-1.22,2.72-2.72,2.72ZM14.96,123.59h80.8v-6.96H14.96v6.96Z"/>
      </g>
      <polygon class="cls-2" points="98.63 94.37 89.18 114.01 98.25 114.01 107.71 94.37 98.63 94.37"/>
      <rect class="cls-2" x="89.41" y="113.92" width="9.07" height="12.4"/>
      <g>
        <rect class="cls-1" x="41.82" y="26.97" width="28.7" height="15.19"/>
        <path class="cls-3" d="M70.52,44.87h-28.7c-1.5,0-2.72-1.22-2.72-2.72v-15.19c0-1.5,1.22-2.72,2.72-2.72h28.7c1.5,0,2.72,1.22,2.72,2.72v15.19c0,1.5-1.22,2.72-2.72,2.72ZM44.54,39.43h23.25v-9.74h-23.25v9.74Z"/>
      </g>
      <g>
        <rect class="cls-1" x="46.79" y="7.53" width="18.75" height="19.43"/>
        <path class="cls-3" d="M65.54,29.69h-18.75c-1.5,0-2.72-1.22-2.72-2.72V7.53c0-1.5,1.22-2.72,2.72-2.72h18.75c1.5,0,2.72,1.22,2.72,2.72v19.43c0,1.5-1.22,2.72-2.72,2.72ZM49.51,24.24h13.31v-13.99h-13.31v13.99Z"/>
      </g>
      <rect class="cls-2" x="61.44" y="26.97" width="9.07" height="15.19"/>
      <rect class="cls-2" x="56.47" y="7.53" width="9.07" height="19.43"/>
      <g>
        <rect class="cls-5" x="36.24" y="12.6" width="10.56" height="7.33" transform="translate(83.03 32.53) rotate(180)"/>
        <path class="cls-3" d="M46.79,22.65h-10.56c-1.5,0-2.72-1.22-2.72-2.72v-7.33c0-1.5,1.22-2.72,2.72-2.72h10.56c1.5,0,2.72,1.22,2.72,2.72v7.33c0,1.5-1.22,2.72-2.72,2.72ZM38.96,17.21h5.11v-1.88h-5.11v1.88Z"/>
      </g>
      <g>
        <rect class="cls-5" x="65.54" y="12.6" width="45.17" height="7.33" transform="translate(176.25 32.53) rotate(180)"/>
        <path class="cls-3" d="M110.71,22.65h-45.17c-1.5,0-2.72-1.22-2.72-2.72v-7.33c0-1.5,1.22-2.72,2.72-2.72h45.17c1.5,0,2.72,1.22,2.72,2.72v7.33c0,1.5-1.22,2.72-2.72,2.72ZM68.26,17.21h39.72v-1.88h-39.72v1.88Z"/>
      </g>
      <g>
        <path class="cls-4" d="M132.94,16.27c0,7.48-16.66,13.54-24.14,13.54s-13.54-6.06-13.54-13.54,6.06-13.54,13.54-13.54,24.14,6.06,24.14,13.54Z"/>
        <path class="cls-3" d="M108.8,32.53c-8.97,0-16.26-7.3-16.26-16.27S99.83,0,108.8,0c7.97,0,26.86,6.31,26.86,16.26s-18.89,16.27-26.86,16.27ZM108.8,5.44c-5.97,0-10.82,4.86-10.82,10.82s4.86,10.82,10.82,10.82c7.26,0,21.42-5.84,21.42-10.82s-14.16-10.82-21.42-10.82Z"/>
      </g>
      <path class="cls-2" d="M125.49,7.63c.12.45.19.91.19,1.38,0,7.48-16.66,13.54-24.14,13.54-1.86,0-3.62-.38-5.23-1.05,2.05,4.88,6.87,8.31,12.49,8.31,7.48,0,24.14-6.06,24.14-13.54,0-3.28-3.21-6.29-7.45-8.64Z"/>
    </g>
  </g>
</svg>