<?xml version="1.0" encoding="UTF-8"?>
<svg id="Layer_2" data-name="Layer 2" xmlns="http://www.w3.org/2000/svg" viewBox="0 0 86.53 134.08">
  <defs>
    <style>
      .cls-1 {
        fill: #4f4f4f;
      }

      .cls-2 {
        fill: #fff;
      }

      .cls-3 {
        opacity: .15;
      }

      .cls-4 {
        fill: #2f2f31;
      }

      .cls-5 {
        fill: #fab99a;
      }

      .cls-6 {
        fill: #f8e7c5;
      }
    </style>
  </defs>
  <g id="Layer_1-2" data-name="Layer 1">
    <g>
      <g>
        <path class="cls-5" d="M60.36,46.09H2.72v81.61h.13c-.08.1-.13.2-.13.3,0,1.85,12.9,3.36,28.82,3.36s28.82-1.5,28.82-3.36c0-.1-.05-.2-.13-.3h.13V46.09Z"/>
        <path class="cls-4" d="M31.54,134.08c-31.54,0-31.54-4.11-31.54-6.08,0-.05,0-.1,0-.16,0-.05,0-.1,0-.14V46.09c0-1.5,1.22-2.72,2.72-2.72h57.64c1.5,0,2.72,1.22,2.72,2.72v81.61s0,.1,0,.15c0,.05,0,.1,0,.16,0,1.97,0,6.08-31.54,6.08ZM58.07,129.36s0,0,0,0c0,0,0,0,0,0ZM5.01,129.35s0,0,0,0c0,0,0,0,0,0ZM5.44,126.62c2.82.84,11.73,2.02,26.1,2.02s23.28-1.18,26.1-2.02V48.81H5.44v77.81Z"/>
      </g>
      <g>
        <ellipse class="cls-2" cx="31.54" cy="46.09" rx="28.82" ry="3.36"/>
        <path class="cls-4" d="M31.54,52.17C0,52.17,0,48.06,0,46.09s0-6.08,31.54-6.08,31.54,4.11,31.54,6.08,0,6.08-31.54,6.08ZM58.43,47.78h.02-.02ZM14.85,46.09c4.29.37,9.88.64,16.7.64s12.4-.27,16.7-.64c-4.29-.37-9.88-.64-16.7-.64s-12.4.27-16.7.64Z"/>
      </g>
      <g>
        <path class="cls-5" d="M54.58,28.1H8.5v19.86s6.13,1.48,23.04,1.48,23.04-1.48,23.04-1.48v-19.86Z"/>
        <path class="cls-4" d="M31.54,52.17c-17.04,0-23.42-1.49-23.68-1.55-1.22-.29-2.08-1.39-2.08-2.65v-19.86c0-1.5,1.22-2.72,2.72-2.72h46.08c1.5,0,2.72,1.22,2.72,2.72v19.86c0,1.26-.86,2.35-2.08,2.65-.26.06-6.64,1.55-23.68,1.55ZM11.22,45.67c2.98.42,9.33,1.05,20.32,1.05s17.34-.64,20.32-1.05v-14.85H11.22v14.85Z"/>
      </g>
      <path class="cls-3" d="M45.51,28.1v19.86s-5.04,1.2-18.51,1.44c1.43.02,2.92.04,4.54.04,16.92,0,23.04-1.48,23.04-1.48v-19.86h-9.07Z"/>
      <g>
        <ellipse class="cls-2" cx="31.54" cy="28.52" rx="23.04" ry="2.16"/>
        <path class="cls-4" d="M31.54,33.4c-25.76,0-25.76-2.59-25.76-4.88s0-4.88,25.76-4.88,25.76,2.59,25.76,4.88,0,4.88-25.76,4.88ZM52.98,30.56h.02-.02Z"/>
      </g>
      <g>
        <path class="cls-1" d="M49.71,2.72h-27.04c-5.29,0-9.58,4.29-9.58,9.58v17.38s6.32,1,18.44,1,18.17-1,18.17-1v-13.57l9.71-5.33,3.76-8.06h-13.47Z"/>
        <path class="cls-4" d="M31.54,33.4c-12.19,0-18.6-.99-18.87-1.04-1.32-.21-2.3-1.35-2.3-2.69V12.3C10.38,5.52,15.89,0,22.67,0h40.51c.93,0,1.8.47,2.29,1.26.5.78.57,1.77.17,2.61l-3.76,8.06c-.24.52-.65.96-1.16,1.24l-8.3,4.55v11.96c0,1.33-.96,2.47-2.28,2.69-.26.04-6.41,1.04-18.61,1.04ZM15.82,27.26c2.79.29,8.1.69,15.72.69s12.72-.4,15.45-.68v-11.16c0-.99.54-1.91,1.41-2.39l8.93-4.9,1.58-3.38H22.67c-3.78,0-6.85,3.08-6.85,6.85v14.97Z"/>
      </g>
      <path class="cls-3" d="M54.11,2.72l-3.76,8.06-9.71,5.33v13.57s-4.55.75-13.64.95c1.41.03,2.92.05,4.54.05,12.12,0,18.17-1,18.17-1v-13.57l9.71-5.33,3.76-8.06h-9.07Z"/>
      <g>
        <path class="cls-5" d="M83.8,29.62c0,7.07-3.47,9.53-7.76,9.53s-7.76-2.46-7.76-9.53,7.76-16.07,7.76-16.07c0,0,7.76,9,7.76,16.07Z"/>
        <path class="cls-4" d="M76.05,41.88c-6.56,0-10.48-4.58-10.48-12.25s7.56-16.84,8.42-17.84c1.03-1.2,3.09-1.2,4.12,0,.86,1,8.42,9.99,8.42,17.84s-3.92,12.25-10.48,12.25ZM76.05,18c-2.25,3.19-5.04,7.97-5.04,11.62,0,6.04,2.69,6.81,5.04,6.81s5.04-.77,5.04-6.81c0-3.66-2.78-8.44-5.04-11.62Z"/>
      </g>
      <path class="cls-3" d="M76.05,13.56s-.57.67-1.39,1.76c1.09,2.31,1.89,4.78,1.89,7.05,0,7.07-3.47,9.53-7.76,9.53-.12,0-.24,0-.36-.01.68,5.34,3.83,7.27,7.62,7.27,4.29,0,7.76-2.46,7.76-9.53s-7.76-16.07-7.76-16.07Z"/>
      <g>
        <path class="cls-6" d="M2.85,127.7c-.08.1-.13.2-.13.3,0,1.85,12.9,3.36,28.82,3.36s28.82-1.5,28.82-3.36c0-.1-.05-.2-.13-.3h.13v-60.53c0,1.68-12.9,3.04-28.82,3.04-3.98,0-7.77-.09-11.22-.24v46.53c-10.34-.46-17.6-1.54-17.6-2.81v13.99h.13Z"/>
        <path class="cls-4" d="M31.54,134.08c-31.54,0-31.54-4.11-31.54-6.08,0-.05,0-.1,0-.15,0-.05,0-.1,0-.15v-13.99c0-1.5,1.22-2.72,2.72-2.72.87,0,1.65.41,2.14,1.05,1.13.39,4.76,1.14,12.74,1.62v-43.67c0-.74.3-1.45.84-1.97.54-.51,1.25-.79,2-.75,3.51.16,7.24.24,11.1.24,14.3,0,24.28-1.11,26.67-1.99.5-.64,1.28-1.06,2.15-1.06,1.5,0,2.72,1.22,2.72,2.72v60.53s0,.1,0,.15c0,.05,0,.1,0,.16,0,1.97,0,6.08-31.54,6.08ZM58.07,129.36s0,0,0,0c0,0,0,0,0,0ZM5.01,129.35s0,0,0,0c0,0,0,0,0,0ZM5.44,126.62c2.82.84,11.73,2.02,26.1,2.02s23.28-1.18,26.1-2.02v-55.41c-4.33,1-12.12,1.73-26.1,1.73-2.91,0-5.76-.04-8.5-.13v43.71c0,.74-.3,1.45-.84,1.97-.54.51-1.26.78-2,.75-7.04-.32-11.71-.77-14.76-1.42v8.81Z"/>
      </g>
      <path class="cls-3" d="M60.36,46.09h-9.07v81.61h-.13c.08.1.13.2.13.3,0,1.67-10.53,3.06-24.28,3.31,1.48.03,2.99.05,4.54.05,15.92,0,28.82-1.5,28.82-3.36,0-.1-.05-.2-.13-.3h.13V46.09Z"/>
    </g>
  </g>
</svg>